<mxfile host="app.diagrams.net" modified="2024-02-26T11:43:48.006Z" agent="Mozilla/5.0 (Macintosh; Intel Mac OS X 10_15_7) AppleWebKit/537.36 (KHTML, like Gecko) Chrome/121.0.0.0 Safari/537.36" etag="F7O_IAN_CGk3mGqM4DOA" version="23.1.5" type="github">
  <diagram id="C5RBs43oDa-KdzZeNtuy" name="Page-1">
    <mxGraphModel dx="2257" dy="729" grid="1" gridSize="10" guides="1" tooltips="1" connect="1" arrows="1" fold="1" page="1" pageScale="1" pageWidth="827" pageHeight="1169" math="0" shadow="0">
      <root>
        <mxCell id="WIyWlLk6GJQsqaUBKTNV-0" />
        <mxCell id="WIyWlLk6GJQsqaUBKTNV-1" parent="WIyWlLk6GJQsqaUBKTNV-0" />
        <mxCell id="TF3ws9ve5TKawhMXfFgK-33" value="归因系统" style="swimlane;childLayout=stackLayout;resizeParent=1;resizeParentMax=0;horizontal=0;startSize=20;horizontalStack=0;html=1;fontFamily=Helvetica;fontSize=11;labelBackgroundColor=default;fillColor=#e1d5e7;strokeColor=#9673a6;" vertex="1" parent="WIyWlLk6GJQsqaUBKTNV-1">
          <mxGeometry x="-10" y="540" width="2020" height="1010" as="geometry" />
        </mxCell>
        <mxCell id="TF3ws9ve5TKawhMXfFgK-34" value="app" style="swimlane;startSize=20;horizontal=0;html=1;fontFamily=Helvetica;fontSize=11;fontColor=default;labelBackgroundColor=default;" vertex="1" parent="TF3ws9ve5TKawhMXfFgK-33">
          <mxGeometry x="20" width="2000" height="130" as="geometry" />
        </mxCell>
        <mxCell id="TF3ws9ve5TKawhMXfFgK-68" value="注册或登录态用户启动app" style="rounded=0;whiteSpace=wrap;html=1;fillColor=#d5e8d4;strokeColor=#82b366;" vertex="1" parent="TF3ws9ve5TKawhMXfFgK-34">
          <mxGeometry x="30" y="30" width="120" height="60" as="geometry" />
        </mxCell>
        <mxCell id="TF3ws9ve5TKawhMXfFgK-37" value="api渠道" style="swimlane;startSize=20;horizontal=0;html=1;fontFamily=Helvetica;fontSize=11;fontColor=default;labelBackgroundColor=default;" vertex="1" parent="TF3ws9ve5TKawhMXfFgK-33">
          <mxGeometry x="20" y="130" width="2000" height="120" as="geometry" />
        </mxCell>
        <mxCell id="TF3ws9ve5TKawhMXfFgK-40" value="api授信通过用户" style="rounded=0;whiteSpace=wrap;html=1;fillColor=#d5e8d4;strokeColor=#82b366;" vertex="1" parent="TF3ws9ve5TKawhMXfFgK-37">
          <mxGeometry x="30" y="30" width="120" height="60" as="geometry" />
        </mxCell>
        <mxCell id="TF3ws9ve5TKawhMXfFgK-91" value="信息流回传系统" style="swimlane;startSize=20;horizontal=0;html=1;fontFamily=Helvetica;fontSize=11;fontColor=default;labelBackgroundColor=default;" vertex="1" parent="TF3ws9ve5TKawhMXfFgK-33">
          <mxGeometry x="20" y="250" width="2000" height="120" as="geometry" />
        </mxCell>
        <mxCell id="TF3ws9ve5TKawhMXfFgK-96" value="" style="edgeStyle=orthogonalEdgeStyle;rounded=1;orthogonalLoop=1;jettySize=auto;html=1;strokeColor=#b85450;align=center;verticalAlign=middle;fontFamily=Helvetica;fontSize=11;fontColor=default;labelBackgroundColor=default;endArrow=classic;fillColor=#f8cecc;" edge="1" parent="TF3ws9ve5TKawhMXfFgK-91" source="TF3ws9ve5TKawhMXfFgK-92" target="TF3ws9ve5TKawhMXfFgK-95">
          <mxGeometry relative="1" as="geometry" />
        </mxCell>
        <mxCell id="TF3ws9ve5TKawhMXfFgK-92" value="增量回传策略" style="rounded=0;whiteSpace=wrap;html=1;fillColor=#f8cecc;strokeColor=#b85450;" vertex="1" parent="TF3ws9ve5TKawhMXfFgK-91">
          <mxGeometry x="1620" y="30" width="120" height="60" as="geometry" />
        </mxCell>
        <mxCell id="TF3ws9ve5TKawhMXfFgK-95" value="数据回传给媒体" style="rounded=0;whiteSpace=wrap;html=1;fillColor=#f8cecc;strokeColor=#b85450;" vertex="1" parent="TF3ws9ve5TKawhMXfFgK-91">
          <mxGeometry x="1840" y="30" width="120" height="60" as="geometry" />
        </mxCell>
        <mxCell id="TF3ws9ve5TKawhMXfFgK-35" value="归因系统" style="swimlane;startSize=20;horizontal=0;html=1;fontFamily=Helvetica;fontSize=11;fontColor=default;labelBackgroundColor=default;" vertex="1" parent="TF3ws9ve5TKawhMXfFgK-33">
          <mxGeometry x="20" y="370" width="2000" height="280" as="geometry" />
        </mxCell>
        <mxCell id="TF3ws9ve5TKawhMXfFgK-38" value="" style="rounded=0;whiteSpace=wrap;html=1;fontFamily=Helvetica;fontSize=11;fontColor=default;labelBackgroundColor=default;dashed=1;" vertex="1" parent="TF3ws9ve5TKawhMXfFgK-35">
          <mxGeometry x="880" y="155" width="360" height="120" as="geometry" />
        </mxCell>
        <mxCell id="TF3ws9ve5TKawhMXfFgK-42" value="开始归因" style="rounded=0;whiteSpace=wrap;html=1;fillColor=#d5e8d4;strokeColor=#82b366;" vertex="1" parent="TF3ws9ve5TKawhMXfFgK-35">
          <mxGeometry x="300" y="185" width="120" height="60" as="geometry" />
        </mxCell>
        <mxCell id="TF3ws9ve5TKawhMXfFgK-43" style="edgeStyle=orthogonalEdgeStyle;rounded=1;orthogonalLoop=1;jettySize=auto;html=1;entryX=0.5;entryY=0;entryDx=0;entryDy=0;strokeColor=default;align=center;verticalAlign=middle;fontFamily=Helvetica;fontSize=11;fontColor=default;labelBackgroundColor=default;endArrow=classic;" edge="1" parent="TF3ws9ve5TKawhMXfFgK-35" source="TF3ws9ve5TKawhMXfFgK-45" target="TF3ws9ve5TKawhMXfFgK-42">
          <mxGeometry relative="1" as="geometry" />
        </mxCell>
        <mxCell id="TF3ws9ve5TKawhMXfFgK-44" value="消费" style="edgeLabel;html=1;align=center;verticalAlign=middle;resizable=0;points=[];fontFamily=Helvetica;fontSize=11;fontColor=default;labelBackgroundColor=default;" vertex="1" connectable="0" parent="TF3ws9ve5TKawhMXfFgK-43">
          <mxGeometry x="-0.0484" y="-2" relative="1" as="geometry">
            <mxPoint as="offset" />
          </mxGeometry>
        </mxCell>
        <mxCell id="TF3ws9ve5TKawhMXfFgK-45" value="mq" style="strokeWidth=2;html=1;shape=mxgraph.flowchart.direct_data;whiteSpace=wrap;fillColor=#d5e8d4;strokeColor=#82b366;" vertex="1" parent="TF3ws9ve5TKawhMXfFgK-35">
          <mxGeometry x="130" y="70" width="100" height="60" as="geometry" />
        </mxCell>
        <mxCell id="TF3ws9ve5TKawhMXfFgK-50" value="注册时间&amp;lt;30天，且注册渠道号为信息流渠道" style="rounded=0;whiteSpace=wrap;html=1;fillColor=#d5e8d4;strokeColor=#82b366;" vertex="1" parent="TF3ws9ve5TKawhMXfFgK-35">
          <mxGeometry x="500" y="185" width="120" height="60" as="geometry" />
        </mxCell>
        <mxCell id="TF3ws9ve5TKawhMXfFgK-41" value="" style="edgeStyle=orthogonalEdgeStyle;rounded=1;orthogonalLoop=1;jettySize=auto;html=1;strokeColor=default;align=center;verticalAlign=middle;fontFamily=Helvetica;fontSize=11;fontColor=default;labelBackgroundColor=default;endArrow=classic;" edge="1" parent="TF3ws9ve5TKawhMXfFgK-35" source="TF3ws9ve5TKawhMXfFgK-42" target="TF3ws9ve5TKawhMXfFgK-50">
          <mxGeometry relative="1" as="geometry" />
        </mxCell>
        <mxCell id="TF3ws9ve5TKawhMXfFgK-51" value="STEP 1 &lt;br&gt;30天内注册用户归因&lt;br&gt;&lt;article data-identifier-application__slash__x-doc-key=&quot;4j6OJQr5vJAJq3p8&quot; data-identifier-application__slash__x-cangjie-fragment=&quot;JTdCJTIya2xhc3MlMjIlM0ElMjJkb2N1bWVudCUyMiUyQyUyMmRhdGElMjIlM0ElN0IlN0QlMkMlMjJub2RlcyUyMiUzQSU1QiU3QiUyMmtsYXNzJTIyJTNBJTIyYmxvY2slMjIlMkMlMjJ0eXBlJTIyJTNBJTIycGFyYWdyYXBoJTIyJTJDJTIyZGF0YSUyMiUzQSU3QiUyMmpjJTIyJTNBJTIybGVmdCUyMiUyQyUyMmluZCUyMiUzQSU3QiU3RCUyQyUyMnNwYWNpbmclMjIlM0ElN0IlN0QlMkMlMjJ1dWlkJTIyJTNBJTIybHQycXFuOXRyeGV2ejk3bjloYSUyMiU3RCUyQyUyMm5vZGVzJTIyJTNBJTVCJTdCJTIya2xhc3MlMjIlM0ElMjJ0ZXh0JTIyJTJDJTIybGVhdmVzJTIyJTNBJTVCJTdCJTIya2xhc3MlMjIlM0ElMjJsZWFmJTIyJTJDJTIydGV4dCUyMiUzQSUyMnJlZ2lzdGVyX3BheSUyMiUyQyUyMm1hcmtzJTIyJTNBJTVCJTdCJTIya2xhc3MlMjIlM0ElMjJtYXJrJTIyJTJDJTIydHlwZSUyMiUzQSUyMmNvbG9yJTIyJTJDJTIyZGF0YSUyMiUzQSU3QiUyMnZhbHVlJTIyJTNBJTIycmdiKDYzJTJDJTIwNzQlMkMlMjA4NiklMjIlN0QlN0QlMkMlN0IlMjJrbGFzcyUyMiUzQSUyMm1hcmslMjIlMkMlMjJ0eXBlJTIyJTNBJTIyaGlnaGxpZ2h0JTIyJTJDJTIyZGF0YSUyMiUzQSU3QiU3RCU3RCU1RCU3RCU1RCU3RCU1RCU3RCU1RCU3RA==&quot; data-clipboard-cangjie=&quot;[&amp;quot;root&amp;quot;,{},[&amp;quot;p&amp;quot;,{&amp;quot;jc&amp;quot;:&amp;quot;left&amp;quot;,&amp;quot;ind&amp;quot;:{},&amp;quot;spacing&amp;quot;:{},&amp;quot;uuid&amp;quot;:&amp;quot;lt2qqn9trxevz97n9ha&amp;quot;},[&amp;quot;span&amp;quot;,{&amp;quot;data-type&amp;quot;:&amp;quot;text&amp;quot;},[&amp;quot;span&amp;quot;,{&amp;quot;color&amp;quot;:&amp;quot;rgb(63, 74, 86)&amp;quot;,&amp;quot;data-type&amp;quot;:&amp;quot;leaf&amp;quot;},&amp;quot;register_pay&amp;quot;]]]]&quot; class=&quot;4ever-article&quot;&gt;&lt;p style=&quot;margin-left: 0px; margin-top: 0px; margin-bottom: 0px;&quot;&gt;register_pay&lt;/p&gt;&lt;/article&gt;" style="text;html=1;align=left;verticalAlign=middle;whiteSpace=wrap;rounded=0;fontFamily=Helvetica;fontSize=11;fontColor=default;labelBackgroundColor=default;" vertex="1" parent="TF3ws9ve5TKawhMXfFgK-35">
          <mxGeometry x="500" y="130" width="110" height="30" as="geometry" />
        </mxCell>
        <mxCell id="TF3ws9ve5TKawhMXfFgK-53" value="15天内有H5登录记录且为信息流渠道" style="rounded=0;whiteSpace=wrap;html=1;fillColor=#d5e8d4;strokeColor=#82b366;" vertex="1" parent="TF3ws9ve5TKawhMXfFgK-35">
          <mxGeometry x="700" y="185" width="120" height="60" as="geometry" />
        </mxCell>
        <mxCell id="TF3ws9ve5TKawhMXfFgK-49" value="" style="edgeStyle=orthogonalEdgeStyle;rounded=1;orthogonalLoop=1;jettySize=auto;html=1;strokeColor=default;align=center;verticalAlign=middle;fontFamily=Helvetica;fontSize=11;fontColor=default;labelBackgroundColor=default;endArrow=classic;" edge="1" parent="TF3ws9ve5TKawhMXfFgK-35" source="TF3ws9ve5TKawhMXfFgK-50" target="TF3ws9ve5TKawhMXfFgK-53">
          <mxGeometry relative="1" as="geometry" />
        </mxCell>
        <mxCell id="TF3ws9ve5TKawhMXfFgK-54" value="STEP 2&lt;br&gt;&lt;article data-identifier-application__slash__x-doc-key=&quot;4j6OJQr5vJAJq3p8&quot; data-identifier-application__slash__x-cangjie-fragment=&quot;JTdCJTIya2xhc3MlMjIlM0ElMjJkb2N1bWVudCUyMiUyQyUyMmRhdGElMjIlM0ElN0IlN0QlMkMlMjJub2RlcyUyMiUzQSU1QiU3QiUyMmtsYXNzJTIyJTNBJTIyYmxvY2slMjIlMkMlMjJ0eXBlJTIyJTNBJTIycGFyYWdyYXBoJTIyJTJDJTIyZGF0YSUyMiUzQSU3QiUyMmpjJTIyJTNBJTIybGVmdCUyMiUyQyUyMmluZCUyMiUzQSU3QiU3RCUyQyUyMnNwYWNpbmclMjIlM0ElN0IlN0QlMkMlMjJ1dWlkJTIyJTNBJTIybHQycXFuOXRyeGV2ejk3bjloYSUyMiU3RCUyQyUyMm5vZGVzJTIyJTNBJTVCJTdCJTIya2xhc3MlMjIlM0ElMjJ0ZXh0JTIyJTJDJTIybGVhdmVzJTIyJTNBJTVCJTdCJTIya2xhc3MlMjIlM0ElMjJsZWFmJTIyJTJDJTIydGV4dCUyMiUzQSUyMnJlZ2lzdGVyX3BheSUyMiUyQyUyMm1hcmtzJTIyJTNBJTVCJTdCJTIya2xhc3MlMjIlM0ElMjJtYXJrJTIyJTJDJTIydHlwZSUyMiUzQSUyMmNvbG9yJTIyJTJDJTIyZGF0YSUyMiUzQSU3QiUyMnZhbHVlJTIyJTNBJTIycmdiKDYzJTJDJTIwNzQlMkMlMjA4NiklMjIlN0QlN0QlMkMlN0IlMjJrbGFzcyUyMiUzQSUyMm1hcmslMjIlMkMlMjJ0eXBlJTIyJTNBJTIyaGlnaGxpZ2h0JTIyJTJDJTIyZGF0YSUyMiUzQSU3QiU3RCU3RCU1RCU3RCU1RCU3RCU1RCU3RCU1RCU3RA==&quot; data-clipboard-cangjie=&quot;[&amp;quot;root&amp;quot;,{},[&amp;quot;p&amp;quot;,{&amp;quot;jc&amp;quot;:&amp;quot;left&amp;quot;,&amp;quot;ind&amp;quot;:{},&amp;quot;spacing&amp;quot;:{},&amp;quot;uuid&amp;quot;:&amp;quot;lt2qqn9trxevz97n9ha&amp;quot;},[&amp;quot;span&amp;quot;,{&amp;quot;data-type&amp;quot;:&amp;quot;text&amp;quot;},[&amp;quot;span&amp;quot;,{&amp;quot;color&amp;quot;:&amp;quot;rgb(63, 74, 86)&amp;quot;,&amp;quot;data-type&amp;quot;:&amp;quot;leaf&amp;quot;},&amp;quot;register_pay&amp;quot;]]]]&quot; class=&quot;4ever-article&quot;&gt;&lt;p style=&quot;margin-left: 0px; margin-top: 0px; margin-bottom: 0px;&quot;&gt;H5登录归因&lt;/p&gt;&lt;p style=&quot;margin-left: 0px; margin-top: 0px; margin-bottom: 0px;&quot;&gt;h5_login&lt;/p&gt;&lt;/article&gt;" style="text;html=1;align=left;verticalAlign=middle;whiteSpace=wrap;rounded=0;fontFamily=Helvetica;fontSize=11;fontColor=default;labelBackgroundColor=default;" vertex="1" parent="TF3ws9ve5TKawhMXfFgK-35">
          <mxGeometry x="700" y="130" width="110" height="30" as="geometry" />
        </mxCell>
        <mxCell id="TF3ws9ve5TKawhMXfFgK-56" value="通过ua+ip查询7天内是否有落地页点击记录" style="rounded=0;whiteSpace=wrap;html=1;fillColor=#f0a30a;strokeColor=#BD7000;fontColor=#000000;" vertex="1" parent="TF3ws9ve5TKawhMXfFgK-35">
          <mxGeometry x="900" y="185" width="120" height="60" as="geometry" />
        </mxCell>
        <mxCell id="TF3ws9ve5TKawhMXfFgK-52" value="" style="edgeStyle=orthogonalEdgeStyle;rounded=1;orthogonalLoop=1;jettySize=auto;html=1;strokeColor=default;align=center;verticalAlign=middle;fontFamily=Helvetica;fontSize=11;fontColor=default;labelBackgroundColor=default;endArrow=classic;" edge="1" parent="TF3ws9ve5TKawhMXfFgK-35" source="TF3ws9ve5TKawhMXfFgK-53" target="TF3ws9ve5TKawhMXfFgK-56">
          <mxGeometry relative="1" as="geometry" />
        </mxCell>
        <mxCell id="TF3ws9ve5TKawhMXfFgK-57" value="" style="edgeStyle=orthogonalEdgeStyle;rounded=1;orthogonalLoop=1;jettySize=auto;html=1;strokeColor=default;align=center;verticalAlign=middle;fontFamily=Helvetica;fontSize=11;fontColor=default;labelBackgroundColor=default;endArrow=classic;" edge="1" parent="TF3ws9ve5TKawhMXfFgK-35" source="TF3ws9ve5TKawhMXfFgK-58">
          <mxGeometry relative="1" as="geometry">
            <mxPoint x="1300" y="215" as="targetPoint" />
          </mxGeometry>
        </mxCell>
        <mxCell id="TF3ws9ve5TKawhMXfFgK-58" value="通过设备信息(oaid/idfa/imei/ua+ip)查询7天内是否有媒体点击记录" style="rounded=0;whiteSpace=wrap;html=1;fillColor=#f0a30a;strokeColor=#BD7000;fontColor=#000000;" vertex="1" parent="TF3ws9ve5TKawhMXfFgK-35">
          <mxGeometry x="1100" y="185" width="120" height="60" as="geometry" />
        </mxCell>
        <mxCell id="TF3ws9ve5TKawhMXfFgK-55" value="" style="edgeStyle=orthogonalEdgeStyle;rounded=1;orthogonalLoop=1;jettySize=auto;html=1;strokeColor=default;align=center;verticalAlign=middle;fontFamily=Helvetica;fontSize=11;fontColor=default;labelBackgroundColor=default;endArrow=classic;" edge="1" parent="TF3ws9ve5TKawhMXfFgK-35" source="TF3ws9ve5TKawhMXfFgK-56" target="TF3ws9ve5TKawhMXfFgK-58">
          <mxGeometry relative="1" as="geometry" />
        </mxCell>
        <mxCell id="TF3ws9ve5TKawhMXfFgK-59" value="STEP 3&lt;br&gt;&lt;article data-identifier-application__slash__x-doc-key=&quot;4j6OJQr5vJAJq3p8&quot; data-identifier-application__slash__x-cangjie-fragment=&quot;JTdCJTIya2xhc3MlMjIlM0ElMjJkb2N1bWVudCUyMiUyQyUyMmRhdGElMjIlM0ElN0IlN0QlMkMlMjJub2RlcyUyMiUzQSU1QiU3QiUyMmtsYXNzJTIyJTNBJTIyYmxvY2slMjIlMkMlMjJ0eXBlJTIyJTNBJTIycGFyYWdyYXBoJTIyJTJDJTIyZGF0YSUyMiUzQSU3QiUyMmpjJTIyJTNBJTIybGVmdCUyMiUyQyUyMmluZCUyMiUzQSU3QiU3RCUyQyUyMnNwYWNpbmclMjIlM0ElN0IlN0QlMkMlMjJ1dWlkJTIyJTNBJTIybHQycXFuOXRyeGV2ejk3bjloYSUyMiU3RCUyQyUyMm5vZGVzJTIyJTNBJTVCJTdCJTIya2xhc3MlMjIlM0ElMjJ0ZXh0JTIyJTJDJTIybGVhdmVzJTIyJTNBJTVCJTdCJTIya2xhc3MlMjIlM0ElMjJsZWFmJTIyJTJDJTIydGV4dCUyMiUzQSUyMnJlZ2lzdGVyX3BheSUyMiUyQyUyMm1hcmtzJTIyJTNBJTVCJTdCJTIya2xhc3MlMjIlM0ElMjJtYXJrJTIyJTJDJTIydHlwZSUyMiUzQSUyMmNvbG9yJTIyJTJDJTIyZGF0YSUyMiUzQSU3QiUyMnZhbHVlJTIyJTNBJTIycmdiKDYzJTJDJTIwNzQlMkMlMjA4NiklMjIlN0QlN0QlMkMlN0IlMjJrbGFzcyUyMiUzQSUyMm1hcmslMjIlMkMlMjJ0eXBlJTIyJTNBJTIyaGlnaGxpZ2h0JTIyJTJDJTIyZGF0YSUyMiUzQSU3QiU3RCU3RCU1RCU3RCU1RCU3RCU1RCU3RCU1RCU3RA==&quot; data-clipboard-cangjie=&quot;[&amp;quot;root&amp;quot;,{},[&amp;quot;p&amp;quot;,{&amp;quot;jc&amp;quot;:&amp;quot;left&amp;quot;,&amp;quot;ind&amp;quot;:{},&amp;quot;spacing&amp;quot;:{},&amp;quot;uuid&amp;quot;:&amp;quot;lt2qqn9trxevz97n9ha&amp;quot;},[&amp;quot;span&amp;quot;,{&amp;quot;data-type&amp;quot;:&amp;quot;text&amp;quot;},[&amp;quot;span&amp;quot;,{&amp;quot;color&amp;quot;:&amp;quot;rgb(63, 74, 86)&amp;quot;,&amp;quot;data-type&amp;quot;:&amp;quot;leaf&amp;quot;},&amp;quot;register_pay&amp;quot;]]]]&quot; class=&quot;4ever-article&quot;&gt;&lt;p style=&quot;margin-left: 0px; margin-top: 0px; margin-bottom: 0px;&quot;&gt;点击归因&lt;/p&gt;&lt;article data-identifier-application__slash__x-doc-key=&quot;4j6OJQr5vJAJq3p8&quot; data-identifier-application__slash__x-cangjie-fragment=&quot;JTdCJTIya2xhc3MlMjIlM0ElMjJkb2N1bWVudCUyMiUyQyUyMmRhdGElMjIlM0ElN0IlN0QlMkMlMjJub2RlcyUyMiUzQSU1QiU3QiUyMmtsYXNzJTIyJTNBJTIyYmxvY2slMjIlMkMlMjJ0eXBlJTIyJTNBJTIycGFyYWdyYXBoJTIyJTJDJTIyZGF0YSUyMiUzQSU3QiUyMmpjJTIyJTNBJTIybGVmdCUyMiUyQyUyMmluZCUyMiUzQSU3QiU3RCUyQyUyMnNwYWNpbmclMjIlM0ElN0IlN0QlMkMlMjJ1dWlkJTIyJTNBJTIybHQycXFuOXRjeTlxMGNkYW5iNyUyMiU3RCUyQyUyMm5vZGVzJTIyJTNBJTVCJTdCJTIya2xhc3MlMjIlM0ElMjJ0ZXh0JTIyJTJDJTIybGVhdmVzJTIyJTNBJTVCJTdCJTIya2xhc3MlMjIlM0ElMjJsZWFmJTIyJTJDJTIydGV4dCUyMiUzQSUyMmFkX2NsaWNrJTIyJTJDJTIybWFya3MlMjIlM0ElNUIlN0IlMjJrbGFzcyUyMiUzQSUyMm1hcmslMjIlMkMlMjJ0eXBlJTIyJTNBJTIyaGlnaGxpZ2h0JTIyJTJDJTIyZGF0YSUyMiUzQSU3QiU3RCU3RCUyQyU3QiUyMmtsYXNzJTIyJTNBJTIybWFyayUyMiUyQyUyMnR5cGUlMjIlM0ElMjJjb2xvciUyMiUyQyUyMmRhdGElMjIlM0ElN0IlMjJ2YWx1ZSUyMiUzQSUyMiUyM0ZFMDMwMCUyMiU3RCU3RCU1RCU3RCU1RCU3RCU1RCU3RCU1RCU3RA==&quot; data-clipboard-cangjie=&quot;[&amp;quot;root&amp;quot;,{},[&amp;quot;p&amp;quot;,{&amp;quot;jc&amp;quot;:&amp;quot;left&amp;quot;,&amp;quot;ind&amp;quot;:{},&amp;quot;spacing&amp;quot;:{},&amp;quot;uuid&amp;quot;:&amp;quot;lt2qqn9tcy9q0cdanb7&amp;quot;},[&amp;quot;span&amp;quot;,{&amp;quot;data-type&amp;quot;:&amp;quot;text&amp;quot;},[&amp;quot;span&amp;quot;,{&amp;quot;color&amp;quot;:&amp;quot;#FE0300&amp;quot;,&amp;quot;data-type&amp;quot;:&amp;quot;leaf&amp;quot;},&amp;quot;ad_click&amp;quot;]]]]&quot; class=&quot;4ever-article&quot;&gt;&lt;p style=&quot;margin-left: 0px; margin-top: 0px; margin-bottom: 0px;&quot;&gt;ad_click&lt;/p&gt;&lt;/article&gt;&lt;/article&gt;" style="text;html=1;align=left;verticalAlign=middle;whiteSpace=wrap;rounded=0;fontFamily=Helvetica;fontSize=11;fontColor=default;labelBackgroundColor=default;" vertex="1" parent="TF3ws9ve5TKawhMXfFgK-35">
          <mxGeometry x="880" y="100" width="110" height="30" as="geometry" />
        </mxCell>
        <mxCell id="TF3ws9ve5TKawhMXfFgK-61" value="通过设备信息(oaid/idfa/imei/ua+ip)查询7天内是否有媒体曝光记录" style="rounded=0;whiteSpace=wrap;html=1;fillColor=#f0a30a;strokeColor=#BD7000;fontColor=#000000;" vertex="1" parent="TF3ws9ve5TKawhMXfFgK-35">
          <mxGeometry x="1300" y="185" width="120" height="60" as="geometry" />
        </mxCell>
        <mxCell id="TF3ws9ve5TKawhMXfFgK-62" value="STEP 4&lt;br&gt;&lt;article data-identifier-application__slash__x-doc-key=&quot;4j6OJQr5vJAJq3p8&quot; data-identifier-application__slash__x-cangjie-fragment=&quot;JTdCJTIya2xhc3MlMjIlM0ElMjJkb2N1bWVudCUyMiUyQyUyMmRhdGElMjIlM0ElN0IlN0QlMkMlMjJub2RlcyUyMiUzQSU1QiU3QiUyMmtsYXNzJTIyJTNBJTIyYmxvY2slMjIlMkMlMjJ0eXBlJTIyJTNBJTIycGFyYWdyYXBoJTIyJTJDJTIyZGF0YSUyMiUzQSU3QiUyMmpjJTIyJTNBJTIybGVmdCUyMiUyQyUyMmluZCUyMiUzQSU3QiU3RCUyQyUyMnNwYWNpbmclMjIlM0ElN0IlN0QlMkMlMjJ1dWlkJTIyJTNBJTIybHQycXFuOXRyeGV2ejk3bjloYSUyMiU3RCUyQyUyMm5vZGVzJTIyJTNBJTVCJTdCJTIya2xhc3MlMjIlM0ElMjJ0ZXh0JTIyJTJDJTIybGVhdmVzJTIyJTNBJTVCJTdCJTIya2xhc3MlMjIlM0ElMjJsZWFmJTIyJTJDJTIydGV4dCUyMiUzQSUyMnJlZ2lzdGVyX3BheSUyMiUyQyUyMm1hcmtzJTIyJTNBJTVCJTdCJTIya2xhc3MlMjIlM0ElMjJtYXJrJTIyJTJDJTIydHlwZSUyMiUzQSUyMmNvbG9yJTIyJTJDJTIyZGF0YSUyMiUzQSU3QiUyMnZhbHVlJTIyJTNBJTIycmdiKDYzJTJDJTIwNzQlMkMlMjA4NiklMjIlN0QlN0QlMkMlN0IlMjJrbGFzcyUyMiUzQSUyMm1hcmslMjIlMkMlMjJ0eXBlJTIyJTNBJTIyaGlnaGxpZ2h0JTIyJTJDJTIyZGF0YSUyMiUzQSU3QiU3RCU3RCU1RCU3RCU1RCU3RCU1RCU3RCU1RCU3RA==&quot; data-clipboard-cangjie=&quot;[&amp;quot;root&amp;quot;,{},[&amp;quot;p&amp;quot;,{&amp;quot;jc&amp;quot;:&amp;quot;left&amp;quot;,&amp;quot;ind&amp;quot;:{},&amp;quot;spacing&amp;quot;:{},&amp;quot;uuid&amp;quot;:&amp;quot;lt2qqn9trxevz97n9ha&amp;quot;},[&amp;quot;span&amp;quot;,{&amp;quot;data-type&amp;quot;:&amp;quot;text&amp;quot;},[&amp;quot;span&amp;quot;,{&amp;quot;color&amp;quot;:&amp;quot;rgb(63, 74, 86)&amp;quot;,&amp;quot;data-type&amp;quot;:&amp;quot;leaf&amp;quot;},&amp;quot;register_pay&amp;quot;]]]]&quot; class=&quot;4ever-article&quot;&gt;&lt;p style=&quot;margin-left: 0px; margin-top: 0px; margin-bottom: 0px;&quot;&gt;曝光归因&lt;/p&gt;&lt;article data-identifier-application__slash__x-doc-key=&quot;4j6OJQr5vJAJq3p8&quot; data-identifier-application__slash__x-cangjie-fragment=&quot;JTdCJTIya2xhc3MlMjIlM0ElMjJkb2N1bWVudCUyMiUyQyUyMmRhdGElMjIlM0ElN0IlN0QlMkMlMjJub2RlcyUyMiUzQSU1QiU3QiUyMmtsYXNzJTIyJTNBJTIyYmxvY2slMjIlMkMlMjJ0eXBlJTIyJTNBJTIycGFyYWdyYXBoJTIyJTJDJTIyZGF0YSUyMiUzQSU3QiUyMmpjJTIyJTNBJTIybGVmdCUyMiUyQyUyMmluZCUyMiUzQSU3QiU3RCUyQyUyMnNwYWNpbmclMjIlM0ElN0IlN0QlMkMlMjJ1dWlkJTIyJTNBJTIybHQycXFuOXRjeTlxMGNkYW5iNyUyMiU3RCUyQyUyMm5vZGVzJTIyJTNBJTVCJTdCJTIya2xhc3MlMjIlM0ElMjJ0ZXh0JTIyJTJDJTIybGVhdmVzJTIyJTNBJTVCJTdCJTIya2xhc3MlMjIlM0ElMjJsZWFmJTIyJTJDJTIydGV4dCUyMiUzQSUyMmFkX2NsaWNrJTIyJTJDJTIybWFya3MlMjIlM0ElNUIlN0IlMjJrbGFzcyUyMiUzQSUyMm1hcmslMjIlMkMlMjJ0eXBlJTIyJTNBJTIyaGlnaGxpZ2h0JTIyJTJDJTIyZGF0YSUyMiUzQSU3QiU3RCU3RCUyQyU3QiUyMmtsYXNzJTIyJTNBJTIybWFyayUyMiUyQyUyMnR5cGUlMjIlM0ElMjJjb2xvciUyMiUyQyUyMmRhdGElMjIlM0ElN0IlMjJ2YWx1ZSUyMiUzQSUyMiUyM0ZFMDMwMCUyMiU3RCU3RCU1RCU3RCU1RCU3RCU1RCU3RCU1RCU3RA==&quot; data-clipboard-cangjie=&quot;[&amp;quot;root&amp;quot;,{},[&amp;quot;p&amp;quot;,{&amp;quot;jc&amp;quot;:&amp;quot;left&amp;quot;,&amp;quot;ind&amp;quot;:{},&amp;quot;spacing&amp;quot;:{},&amp;quot;uuid&amp;quot;:&amp;quot;lt2qqn9tcy9q0cdanb7&amp;quot;},[&amp;quot;span&amp;quot;,{&amp;quot;data-type&amp;quot;:&amp;quot;text&amp;quot;},[&amp;quot;span&amp;quot;,{&amp;quot;color&amp;quot;:&amp;quot;#FE0300&amp;quot;,&amp;quot;data-type&amp;quot;:&amp;quot;leaf&amp;quot;},&amp;quot;ad_click&amp;quot;]]]]&quot; class=&quot;4ever-article&quot;&gt;&lt;p style=&quot;margin-left: 0px; margin-top: 0px; margin-bottom: 0px;&quot;&gt;ad_view&lt;/p&gt;&lt;/article&gt;&lt;/article&gt;" style="text;html=1;align=left;verticalAlign=middle;whiteSpace=wrap;rounded=0;fontFamily=Helvetica;fontSize=11;fontColor=default;labelBackgroundColor=default;" vertex="1" parent="TF3ws9ve5TKawhMXfFgK-35">
          <mxGeometry x="1300" y="130" width="110" height="30" as="geometry" />
        </mxCell>
        <mxCell id="TF3ws9ve5TKawhMXfFgK-64" value="注册渠道为信息流，且在注册后30天内登录" style="rounded=0;whiteSpace=wrap;html=1;fillColor=#d5e8d4;strokeColor=#82b366;" vertex="1" parent="TF3ws9ve5TKawhMXfFgK-35">
          <mxGeometry x="1490" y="185" width="120" height="60" as="geometry" />
        </mxCell>
        <mxCell id="TF3ws9ve5TKawhMXfFgK-60" value="" style="edgeStyle=orthogonalEdgeStyle;rounded=1;orthogonalLoop=1;jettySize=auto;html=1;strokeColor=default;align=center;verticalAlign=middle;fontFamily=Helvetica;fontSize=11;fontColor=default;labelBackgroundColor=default;endArrow=classic;" edge="1" parent="TF3ws9ve5TKawhMXfFgK-35" source="TF3ws9ve5TKawhMXfFgK-61" target="TF3ws9ve5TKawhMXfFgK-64">
          <mxGeometry relative="1" as="geometry" />
        </mxCell>
        <mxCell id="TF3ws9ve5TKawhMXfFgK-65" value="STEP 5&lt;br&gt;&lt;article data-identifier-application__slash__x-doc-key=&quot;4j6OJQr5vJAJq3p8&quot; data-identifier-application__slash__x-cangjie-fragment=&quot;JTdCJTIya2xhc3MlMjIlM0ElMjJkb2N1bWVudCUyMiUyQyUyMmRhdGElMjIlM0ElN0IlN0QlMkMlMjJub2RlcyUyMiUzQSU1QiU3QiUyMmtsYXNzJTIyJTNBJTIyYmxvY2slMjIlMkMlMjJ0eXBlJTIyJTNBJTIycGFyYWdyYXBoJTIyJTJDJTIyZGF0YSUyMiUzQSU3QiUyMmpjJTIyJTNBJTIybGVmdCUyMiUyQyUyMmluZCUyMiUzQSU3QiU3RCUyQyUyMnNwYWNpbmclMjIlM0ElN0IlN0QlMkMlMjJ1dWlkJTIyJTNBJTIybHQycXFuOXRyeGV2ejk3bjloYSUyMiU3RCUyQyUyMm5vZGVzJTIyJTNBJTVCJTdCJTIya2xhc3MlMjIlM0ElMjJ0ZXh0JTIyJTJDJTIybGVhdmVzJTIyJTNBJTVCJTdCJTIya2xhc3MlMjIlM0ElMjJsZWFmJTIyJTJDJTIydGV4dCUyMiUzQSUyMnJlZ2lzdGVyX3BheSUyMiUyQyUyMm1hcmtzJTIyJTNBJTVCJTdCJTIya2xhc3MlMjIlM0ElMjJtYXJrJTIyJTJDJTIydHlwZSUyMiUzQSUyMmNvbG9yJTIyJTJDJTIyZGF0YSUyMiUzQSU3QiUyMnZhbHVlJTIyJTNBJTIycmdiKDYzJTJDJTIwNzQlMkMlMjA4NiklMjIlN0QlN0QlMkMlN0IlMjJrbGFzcyUyMiUzQSUyMm1hcmslMjIlMkMlMjJ0eXBlJTIyJTNBJTIyaGlnaGxpZ2h0JTIyJTJDJTIyZGF0YSUyMiUzQSU3QiU3RCU3RCU1RCU3RCU1RCU3RCU1RCU3RCU1RCU3RA==&quot; data-clipboard-cangjie=&quot;[&amp;quot;root&amp;quot;,{},[&amp;quot;p&amp;quot;,{&amp;quot;jc&amp;quot;:&amp;quot;left&amp;quot;,&amp;quot;ind&amp;quot;:{},&amp;quot;spacing&amp;quot;:{},&amp;quot;uuid&amp;quot;:&amp;quot;lt2qqn9trxevz97n9ha&amp;quot;},[&amp;quot;span&amp;quot;,{&amp;quot;data-type&amp;quot;:&amp;quot;text&amp;quot;},[&amp;quot;span&amp;quot;,{&amp;quot;color&amp;quot;:&amp;quot;rgb(63, 74, 86)&amp;quot;,&amp;quot;data-type&amp;quot;:&amp;quot;leaf&amp;quot;},&amp;quot;register_pay&amp;quot;]]]]&quot; class=&quot;4ever-article&quot;&gt;&lt;p style=&quot;margin-left: 0px; margin-top: 0px; margin-bottom: 0px;&quot;&gt;30天后注册归因&lt;/p&gt;&lt;article data-identifier-application__slash__x-doc-key=&quot;4j6OJQr5vJAJq3p8&quot; data-identifier-application__slash__x-cangjie-fragment=&quot;JTdCJTIya2xhc3MlMjIlM0ElMjJkb2N1bWVudCUyMiUyQyUyMmRhdGElMjIlM0ElN0IlN0QlMkMlMjJub2RlcyUyMiUzQSU1QiU3QiUyMmtsYXNzJTIyJTNBJTIyYmxvY2slMjIlMkMlMjJ0eXBlJTIyJTNBJTIycGFyYWdyYXBoJTIyJTJDJTIyZGF0YSUyMiUzQSU3QiUyMmpjJTIyJTNBJTIybGVmdCUyMiUyQyUyMmluZCUyMiUzQSU3QiU3RCUyQyUyMnNwYWNpbmclMjIlM0ElN0IlN0QlMkMlMjJ1dWlkJTIyJTNBJTIybHQycXFuOXVmdHIyOHY3aWJ3byUyMiU3RCUyQyUyMm5vZGVzJTIyJTNBJTVCJTdCJTIya2xhc3MlMjIlM0ElMjJ0ZXh0JTIyJTJDJTIybGVhdmVzJTIyJTNBJTVCJTdCJTIya2xhc3MlMjIlM0ElMjJsZWFmJTIyJTJDJTIydGV4dCUyMiUzQSUyMnJlZ2lzdGVyX2FmdGVyMzAlMjIlMkMlMjJtYXJrcyUyMiUzQSU1QiU3QiUyMmtsYXNzJTIyJTNBJTIybWFyayUyMiUyQyUyMnR5cGUlMjIlM0ElMjJjb2xvciUyMiUyQyUyMmRhdGElMjIlM0ElN0IlMjJ2YWx1ZSUyMiUzQSUyMnJnYig2MyUyQyUyMDc0JTJDJTIwODYpJTIyJTdEJTdEJTJDJTdCJTIya2xhc3MlMjIlM0ElMjJtYXJrJTIyJTJDJTIydHlwZSUyMiUzQSUyMmhpZ2hsaWdodCUyMiUyQyUyMmRhdGElMjIlM0ElN0IlN0QlN0QlNUQlN0QlNUQlN0QlNUQlN0QlNUQlN0Q=&quot; data-clipboard-cangjie=&quot;[&amp;quot;root&amp;quot;,{},[&amp;quot;p&amp;quot;,{&amp;quot;jc&amp;quot;:&amp;quot;left&amp;quot;,&amp;quot;ind&amp;quot;:{},&amp;quot;spacing&amp;quot;:{},&amp;quot;uuid&amp;quot;:&amp;quot;lt2qqn9uftr28v7ibwo&amp;quot;},[&amp;quot;span&amp;quot;,{&amp;quot;data-type&amp;quot;:&amp;quot;text&amp;quot;},[&amp;quot;span&amp;quot;,{&amp;quot;color&amp;quot;:&amp;quot;rgb(63, 74, 86)&amp;quot;,&amp;quot;data-type&amp;quot;:&amp;quot;leaf&amp;quot;},&amp;quot;register_after30&amp;quot;]]]]&quot; class=&quot;4ever-article&quot;&gt;&lt;p style=&quot;margin-left: 0px; margin-top: 0px; margin-bottom: 0px;&quot;&gt;register_after30&lt;/p&gt;&lt;/article&gt;&lt;/article&gt;" style="text;html=1;align=left;verticalAlign=middle;whiteSpace=wrap;rounded=0;fontFamily=Helvetica;fontSize=11;fontColor=default;labelBackgroundColor=default;" vertex="1" parent="TF3ws9ve5TKawhMXfFgK-35">
          <mxGeometry x="1490" y="130" width="130" height="30" as="geometry" />
        </mxCell>
        <mxCell id="TF3ws9ve5TKawhMXfFgK-66" value="非信息流渠道" style="rounded=0;whiteSpace=wrap;html=1;fillColor=#d5e8d4;strokeColor=#82b366;" vertex="1" parent="TF3ws9ve5TKawhMXfFgK-35">
          <mxGeometry x="1670" y="185" width="120" height="60" as="geometry" />
        </mxCell>
        <mxCell id="TF3ws9ve5TKawhMXfFgK-63" value="" style="edgeStyle=orthogonalEdgeStyle;rounded=1;orthogonalLoop=1;jettySize=auto;html=1;strokeColor=default;align=center;verticalAlign=middle;fontFamily=Helvetica;fontSize=11;fontColor=default;labelBackgroundColor=default;endArrow=classic;" edge="1" parent="TF3ws9ve5TKawhMXfFgK-35" source="TF3ws9ve5TKawhMXfFgK-64" target="TF3ws9ve5TKawhMXfFgK-66">
          <mxGeometry relative="1" as="geometry" />
        </mxCell>
        <mxCell id="TF3ws9ve5TKawhMXfFgK-67" value="STEP 6&lt;br&gt;&lt;article data-identifier-application__slash__x-doc-key=&quot;4j6OJQr5vJAJq3p8&quot; data-identifier-application__slash__x-cangjie-fragment=&quot;JTdCJTIya2xhc3MlMjIlM0ElMjJkb2N1bWVudCUyMiUyQyUyMmRhdGElMjIlM0ElN0IlN0QlMkMlMjJub2RlcyUyMiUzQSU1QiU3QiUyMmtsYXNzJTIyJTNBJTIyYmxvY2slMjIlMkMlMjJ0eXBlJTIyJTNBJTIycGFyYWdyYXBoJTIyJTJDJTIyZGF0YSUyMiUzQSU3QiUyMmpjJTIyJTNBJTIybGVmdCUyMiUyQyUyMmluZCUyMiUzQSU3QiU3RCUyQyUyMnNwYWNpbmclMjIlM0ElN0IlN0QlMkMlMjJ1dWlkJTIyJTNBJTIybHQycXFuOXRyeGV2ejk3bjloYSUyMiU3RCUyQyUyMm5vZGVzJTIyJTNBJTVCJTdCJTIya2xhc3MlMjIlM0ElMjJ0ZXh0JTIyJTJDJTIybGVhdmVzJTIyJTNBJTVCJTdCJTIya2xhc3MlMjIlM0ElMjJsZWFmJTIyJTJDJTIydGV4dCUyMiUzQSUyMnJlZ2lzdGVyX3BheSUyMiUyQyUyMm1hcmtzJTIyJTNBJTVCJTdCJTIya2xhc3MlMjIlM0ElMjJtYXJrJTIyJTJDJTIydHlwZSUyMiUzQSUyMmNvbG9yJTIyJTJDJTIyZGF0YSUyMiUzQSU3QiUyMnZhbHVlJTIyJTNBJTIycmdiKDYzJTJDJTIwNzQlMkMlMjA4NiklMjIlN0QlN0QlMkMlN0IlMjJrbGFzcyUyMiUzQSUyMm1hcmslMjIlMkMlMjJ0eXBlJTIyJTNBJTIyaGlnaGxpZ2h0JTIyJTJDJTIyZGF0YSUyMiUzQSU3QiU3RCU3RCU1RCU3RCU1RCU3RCU1RCU3RCU1RCU3RA==&quot; data-clipboard-cangjie=&quot;[&amp;quot;root&amp;quot;,{},[&amp;quot;p&amp;quot;,{&amp;quot;jc&amp;quot;:&amp;quot;left&amp;quot;,&amp;quot;ind&amp;quot;:{},&amp;quot;spacing&amp;quot;:{},&amp;quot;uuid&amp;quot;:&amp;quot;lt2qqn9trxevz97n9ha&amp;quot;},[&amp;quot;span&amp;quot;,{&amp;quot;data-type&amp;quot;:&amp;quot;text&amp;quot;},[&amp;quot;span&amp;quot;,{&amp;quot;color&amp;quot;:&amp;quot;rgb(63, 74, 86)&amp;quot;,&amp;quot;data-type&amp;quot;:&amp;quot;leaf&amp;quot;},&amp;quot;register_pay&amp;quot;]]]]&quot; class=&quot;4ever-article&quot;&gt;&lt;p style=&quot;margin-left: 0px; margin-top: 0px; margin-bottom: 0px;&quot;&gt;自然量归因login_attribution&lt;br&gt;&lt;/p&gt;&lt;/article&gt;" style="text;html=1;align=left;verticalAlign=middle;whiteSpace=wrap;rounded=0;fontFamily=Helvetica;fontSize=11;fontColor=default;labelBackgroundColor=default;" vertex="1" parent="TF3ws9ve5TKawhMXfFgK-35">
          <mxGeometry x="1670" y="130" width="130" height="30" as="geometry" />
        </mxCell>
        <mxCell id="TF3ws9ve5TKawhMXfFgK-85" value="提供用户的归因结果" style="rounded=0;whiteSpace=wrap;html=1;fillColor=#d5e8d4;strokeColor=#82b366;" vertex="1" parent="TF3ws9ve5TKawhMXfFgK-35">
          <mxGeometry x="1840" y="185" width="120" height="60" as="geometry" />
        </mxCell>
        <mxCell id="TF3ws9ve5TKawhMXfFgK-73" value="大数据ads服务" style="swimlane;startSize=20;horizontal=0;html=1;fontFamily=Helvetica;fontSize=11;fontColor=default;labelBackgroundColor=default;" vertex="1" parent="TF3ws9ve5TKawhMXfFgK-33">
          <mxGeometry x="20" y="650" width="2000" height="120" as="geometry" />
        </mxCell>
        <mxCell id="TF3ws9ve5TKawhMXfFgK-74" value="提供埋点/登录数据" style="rounded=0;whiteSpace=wrap;html=1;fillColor=#d5e8d4;strokeColor=#82b366;" vertex="1" parent="TF3ws9ve5TKawhMXfFgK-73">
          <mxGeometry x="810" y="40" width="120" height="60" as="geometry" />
        </mxCell>
        <mxCell id="TF3ws9ve5TKawhMXfFgK-72" value="媒体监测数据" style="swimlane;startSize=20;horizontal=0;html=1;fontFamily=Helvetica;fontSize=11;fontColor=default;labelBackgroundColor=default;" vertex="1" parent="TF3ws9ve5TKawhMXfFgK-33">
          <mxGeometry x="20" y="770" width="2000" height="120" as="geometry" />
        </mxCell>
        <mxCell id="TF3ws9ve5TKawhMXfFgK-75" value="提供媒体点击曝光数据" style="rounded=0;whiteSpace=wrap;html=1;fillColor=#d5e8d4;strokeColor=#82b366;" vertex="1" parent="TF3ws9ve5TKawhMXfFgK-72">
          <mxGeometry x="1210" y="30" width="120" height="60" as="geometry" />
        </mxCell>
        <mxCell id="TF3ws9ve5TKawhMXfFgK-36" value="风控系统" style="swimlane;startSize=20;horizontal=0;html=1;fontFamily=Helvetica;fontSize=11;fontColor=default;labelBackgroundColor=default;" vertex="1" parent="TF3ws9ve5TKawhMXfFgK-33">
          <mxGeometry x="20" y="890" width="2000" height="120" as="geometry" />
        </mxCell>
        <mxCell id="TF3ws9ve5TKawhMXfFgK-87" value="" style="edgeStyle=orthogonalEdgeStyle;rounded=1;orthogonalLoop=1;jettySize=auto;html=1;strokeColor=default;align=center;verticalAlign=middle;fontFamily=Helvetica;fontSize=11;fontColor=default;labelBackgroundColor=default;endArrow=classic;" edge="1" parent="TF3ws9ve5TKawhMXfFgK-36" source="TF3ws9ve5TKawhMXfFgK-83" target="TF3ws9ve5TKawhMXfFgK-86">
          <mxGeometry relative="1" as="geometry" />
        </mxCell>
        <mxCell id="TF3ws9ve5TKawhMXfFgK-83" value="发起授信激活" style="rounded=0;whiteSpace=wrap;html=1;fillColor=#d5e8d4;strokeColor=#82b366;" vertex="1" parent="TF3ws9ve5TKawhMXfFgK-36">
          <mxGeometry x="1580" y="40" width="120" height="60" as="geometry" />
        </mxCell>
        <mxCell id="TF3ws9ve5TKawhMXfFgK-86" value="根据归因结果做不同的风控决策策略" style="rounded=0;whiteSpace=wrap;html=1;fillColor=#d5e8d4;strokeColor=#82b366;" vertex="1" parent="TF3ws9ve5TKawhMXfFgK-36">
          <mxGeometry x="1780" y="40" width="120" height="60" as="geometry" />
        </mxCell>
        <mxCell id="TF3ws9ve5TKawhMXfFgK-69" style="edgeStyle=orthogonalEdgeStyle;rounded=1;orthogonalLoop=1;jettySize=auto;html=1;entryX=0.5;entryY=0;entryDx=0;entryDy=0;entryPerimeter=0;strokeColor=default;align=center;verticalAlign=middle;fontFamily=Helvetica;fontSize=11;fontColor=default;labelBackgroundColor=default;endArrow=classic;" edge="1" parent="TF3ws9ve5TKawhMXfFgK-33" source="TF3ws9ve5TKawhMXfFgK-68" target="TF3ws9ve5TKawhMXfFgK-45">
          <mxGeometry relative="1" as="geometry">
            <Array as="points">
              <mxPoint x="200" y="60" />
            </Array>
          </mxGeometry>
        </mxCell>
        <mxCell id="TF3ws9ve5TKawhMXfFgK-70" style="edgeStyle=orthogonalEdgeStyle;rounded=1;orthogonalLoop=1;jettySize=auto;html=1;entryX=0.5;entryY=0;entryDx=0;entryDy=0;entryPerimeter=0;strokeColor=default;align=center;verticalAlign=middle;fontFamily=Helvetica;fontSize=11;fontColor=default;labelBackgroundColor=default;endArrow=classic;" edge="1" parent="TF3ws9ve5TKawhMXfFgK-33" source="TF3ws9ve5TKawhMXfFgK-40" target="TF3ws9ve5TKawhMXfFgK-45">
          <mxGeometry relative="1" as="geometry">
            <Array as="points">
              <mxPoint x="200" y="180" />
            </Array>
          </mxGeometry>
        </mxCell>
        <mxCell id="TF3ws9ve5TKawhMXfFgK-71" value="生产" style="edgeLabel;html=1;align=center;verticalAlign=middle;resizable=0;points=[];fontFamily=Helvetica;fontSize=11;fontColor=default;labelBackgroundColor=default;" vertex="1" connectable="0" parent="TF3ws9ve5TKawhMXfFgK-70">
          <mxGeometry x="0.5127" relative="1" as="geometry">
            <mxPoint y="18" as="offset" />
          </mxGeometry>
        </mxCell>
        <mxCell id="TF3ws9ve5TKawhMXfFgK-77" style="edgeStyle=orthogonalEdgeStyle;rounded=1;orthogonalLoop=1;jettySize=auto;html=1;entryX=0.5;entryY=1;entryDx=0;entryDy=0;strokeColor=default;align=center;verticalAlign=middle;fontFamily=Helvetica;fontSize=11;fontColor=default;labelBackgroundColor=default;endArrow=classic;" edge="1" parent="TF3ws9ve5TKawhMXfFgK-33" source="TF3ws9ve5TKawhMXfFgK-74" target="TF3ws9ve5TKawhMXfFgK-53">
          <mxGeometry relative="1" as="geometry">
            <Array as="points">
              <mxPoint x="890" y="670" />
              <mxPoint x="780" y="670" />
            </Array>
          </mxGeometry>
        </mxCell>
        <mxCell id="TF3ws9ve5TKawhMXfFgK-78" style="edgeStyle=orthogonalEdgeStyle;rounded=1;orthogonalLoop=1;jettySize=auto;html=1;entryX=0.5;entryY=1;entryDx=0;entryDy=0;strokeColor=default;align=center;verticalAlign=middle;fontFamily=Helvetica;fontSize=11;fontColor=default;labelBackgroundColor=default;endArrow=classic;" edge="1" parent="TF3ws9ve5TKawhMXfFgK-33" source="TF3ws9ve5TKawhMXfFgK-74" target="TF3ws9ve5TKawhMXfFgK-56">
          <mxGeometry relative="1" as="geometry">
            <Array as="points">
              <mxPoint x="890" y="670" />
              <mxPoint x="980" y="670" />
            </Array>
          </mxGeometry>
        </mxCell>
        <mxCell id="TF3ws9ve5TKawhMXfFgK-81" style="edgeStyle=orthogonalEdgeStyle;rounded=1;orthogonalLoop=1;jettySize=auto;html=1;entryX=0.5;entryY=1;entryDx=0;entryDy=0;strokeColor=default;align=center;verticalAlign=middle;fontFamily=Helvetica;fontSize=11;fontColor=default;labelBackgroundColor=default;endArrow=classic;" edge="1" parent="TF3ws9ve5TKawhMXfFgK-33" source="TF3ws9ve5TKawhMXfFgK-75" target="TF3ws9ve5TKawhMXfFgK-58">
          <mxGeometry relative="1" as="geometry" />
        </mxCell>
        <mxCell id="TF3ws9ve5TKawhMXfFgK-82" style="edgeStyle=orthogonalEdgeStyle;rounded=1;orthogonalLoop=1;jettySize=auto;html=1;entryX=0.5;entryY=1;entryDx=0;entryDy=0;strokeColor=default;align=center;verticalAlign=middle;fontFamily=Helvetica;fontSize=11;fontColor=default;labelBackgroundColor=default;endArrow=classic;" edge="1" parent="TF3ws9ve5TKawhMXfFgK-33" source="TF3ws9ve5TKawhMXfFgK-75" target="TF3ws9ve5TKawhMXfFgK-61">
          <mxGeometry relative="1" as="geometry" />
        </mxCell>
        <mxCell id="TF3ws9ve5TKawhMXfFgK-84" style="edgeStyle=orthogonalEdgeStyle;rounded=1;orthogonalLoop=1;jettySize=auto;html=1;strokeColor=default;align=center;verticalAlign=middle;fontFamily=Helvetica;fontSize=11;fontColor=default;labelBackgroundColor=default;endArrow=classic;entryX=0.5;entryY=1;entryDx=0;entryDy=0;" edge="1" parent="TF3ws9ve5TKawhMXfFgK-33" source="TF3ws9ve5TKawhMXfFgK-83" target="TF3ws9ve5TKawhMXfFgK-85">
          <mxGeometry relative="1" as="geometry">
            <mxPoint x="1900" y="489.9999999999998" as="targetPoint" />
            <Array as="points">
              <mxPoint x="1660" y="670" />
              <mxPoint x="1920" y="670" />
            </Array>
          </mxGeometry>
        </mxCell>
        <mxCell id="TF3ws9ve5TKawhMXfFgK-93" style="edgeStyle=orthogonalEdgeStyle;rounded=1;orthogonalLoop=1;jettySize=auto;html=1;entryX=0.5;entryY=1;entryDx=0;entryDy=0;strokeColor=default;align=center;verticalAlign=middle;fontFamily=Helvetica;fontSize=11;fontColor=default;labelBackgroundColor=default;endArrow=classic;" edge="1" parent="TF3ws9ve5TKawhMXfFgK-33" source="TF3ws9ve5TKawhMXfFgK-85" target="TF3ws9ve5TKawhMXfFgK-92">
          <mxGeometry relative="1" as="geometry">
            <Array as="points">
              <mxPoint x="1920" y="440" />
              <mxPoint x="1700" y="440" />
            </Array>
          </mxGeometry>
        </mxCell>
        <mxCell id="TF3ws9ve5TKawhMXfFgK-90" style="edgeStyle=orthogonalEdgeStyle;rounded=1;orthogonalLoop=1;jettySize=auto;html=1;strokeColor=default;align=center;verticalAlign=middle;fontFamily=Helvetica;fontSize=11;fontColor=default;labelBackgroundColor=default;endArrow=classic;" edge="1" parent="WIyWlLk6GJQsqaUBKTNV-1" source="TF3ws9ve5TKawhMXfFgK-88" target="TF3ws9ve5TKawhMXfFgK-89">
          <mxGeometry relative="1" as="geometry" />
        </mxCell>
        <mxCell id="TF3ws9ve5TKawhMXfFgK-88" value="" style="rounded=0;whiteSpace=wrap;html=1;fillColor=#f0a30a;strokeColor=#BD7000;fontColor=#000000;" vertex="1" parent="WIyWlLk6GJQsqaUBKTNV-1">
          <mxGeometry x="-10" y="490" width="60" height="20" as="geometry" />
        </mxCell>
        <mxCell id="TF3ws9ve5TKawhMXfFgK-89" value="待优化的点" style="text;strokeColor=none;fillColor=none;html=1;fontSize=11;fontStyle=1;verticalAlign=middle;align=center;fontFamily=Helvetica;fontColor=default;labelBackgroundColor=default;" vertex="1" parent="WIyWlLk6GJQsqaUBKTNV-1">
          <mxGeometry x="70" y="490" width="60" height="20" as="geometry" />
        </mxCell>
        <mxCell id="TF3ws9ve5TKawhMXfFgK-100" style="edgeStyle=orthogonalEdgeStyle;rounded=1;orthogonalLoop=1;jettySize=auto;html=1;strokeColor=default;align=center;verticalAlign=middle;fontFamily=Helvetica;fontSize=11;fontColor=default;labelBackgroundColor=default;endArrow=classic;" edge="1" parent="WIyWlLk6GJQsqaUBKTNV-1" source="TF3ws9ve5TKawhMXfFgK-97" target="TF3ws9ve5TKawhMXfFgK-99">
          <mxGeometry relative="1" as="geometry" />
        </mxCell>
        <mxCell id="TF3ws9ve5TKawhMXfFgK-97" value="" style="rounded=0;whiteSpace=wrap;html=1;fillColor=#f8cecc;strokeColor=#b85450;" vertex="1" parent="WIyWlLk6GJQsqaUBKTNV-1">
          <mxGeometry x="-10" y="450" width="60" height="20" as="geometry" />
        </mxCell>
        <mxCell id="TF3ws9ve5TKawhMXfFgK-99" value="还未做" style="text;strokeColor=none;fillColor=none;html=1;fontSize=11;fontStyle=1;verticalAlign=middle;align=center;fontFamily=Helvetica;fontColor=default;labelBackgroundColor=default;" vertex="1" parent="WIyWlLk6GJQsqaUBKTNV-1">
          <mxGeometry x="70" y="450" width="40" height="20" as="geometry" />
        </mxCell>
      </root>
    </mxGraphModel>
  </diagram>
</mxfile>
